<?xml version="1.0" encoding="utf-8"?>
<!-- Generator: Adobe Illustrator 19.0.0, SVG Export Plug-In . SVG Version: 6.00 Build 0)  -->
<svg version="1.1" id="Camada_1" xmlns="http://www.w3.org/2000/svg" xmlns:xlink="http://www.w3.org/1999/xlink" x="0px" y="0px"
	 width="800px" height="1280px" viewBox="-239 -240 800 1280" style="enable-background:new -239 -240 800 1280;"
	 xml:space="preserve">
<style type="text/css">
	.st0{display:none;}
	.st1{display:inline;}
	.st2{stroke:#FFFFFF;stroke-miterlimit:10;}
	.st3{fill:#FFFFFF;stroke:#000000;stroke-width:60;stroke-miterlimit:10;}
	.st4{display:inline;fill:#FFFFFF;}
	.st5{fill:#FFFFFF;stroke:#000000;stroke-width:30;stroke-miterlimit:10;}
	.st6{display:inline;fill:#FFFFFF;stroke:#000000;stroke-width:60;stroke-miterlimit:10;}
</style>
<g id="Camada_1_1_" class="st0">
	<g id="Camada_2" class="st1">
		<rect x="-398" y="-480" class="st2" width="809.9" height="1280"/>
	</g>
	<g id="XMLID_1_" class="st1">
		<circle class="st3" cx="-83.3" cy="145.3" r="244.9"/>
	</g>
</g>
<g id="Camada_3" class="st0">
	<circle class="st4" cx="-83.3" cy="145.3" r="276"/>
</g>
<g id="Camada_4">
	<rect x="-292.8" y="-49.4" class="st5" width="435.2" height="435.2"/>
</g>
<g id="Camada_2_1_" class="st0">
	<path class="st6" d="M-68.8-90.6L-9.7,29.2c2.4,4.8,6.9,8.1,12.2,8.9l132.2,19.2c13.3,1.9,18.6,18.3,9,27.7l-95.6,93.2
		c-3.8,3.7-5.6,9.1-4.7,14.4L66,324.2c2.3,13.3-11.6,23.4-23.6,17.1l-118.2-62.1c-4.7-2.5-10.4-2.5-15.1,0l-118.2,62.1
		c-11.9,6.3-25.8-3.9-23.6-17.1l22.6-131.6c0.9-5.3-0.8-10.6-4.7-14.4L-310.4,85c-9.6-9.4-4.3-25.8,9-27.7l132.2-19.2
		c5.3-0.8,9.9-4.1,12.2-8.9l59.1-119.8C-91.9-102.6-74.7-102.6-68.8-90.6z"/>
</g>
</svg>
