<?xml version="1.0" encoding="utf-8"?>
<!-- Generator: Adobe Illustrator 19.0.0, SVG Export Plug-In . SVG Version: 6.00 Build 0)  -->
<svg version="1.1" xmlns="http://www.w3.org/2000/svg" xmlns:xlink="http://www.w3.org/1999/xlink" x="0px" y="0px" width="800px"
	 height="1280px" viewBox="-239 -240 800 1280" style="enable-background:new -239 -240 800 1280;" xml:space="preserve">
<style type="text/css">
	.st0{display:none;}
	.st1{display:inline;stroke:#FFFFFF;stroke-miterlimit:10;}
	.st2{display:inline;}
	.st3{fill:#FFFFFF;stroke:#000000;stroke-width:60;stroke-miterlimit:10;}
	.st4{fill:#FFFFFF;}
	.st5{display:inline;fill:#FFFFFF;stroke:#000000;stroke-width:60;stroke-miterlimit:10;}
</style>
<g id="Camada_1" class="st0">
	<g id="Camada_2">
		<rect x="-159" y="-240" class="st1" width="809.9" height="1280"/>
	</g>
	<g id="XMLID_1_" class="st2">
		<circle class="st3" cx="155.7" cy="385.3" r="244.9"/>
	</g>
</g>
<g id="Camada_3">
	<circle class="st4" cx="155.7" cy="385.3" r="276"/>
</g>
<g id="Camada_2_1_" class="st0">
	<path class="st5" d="M170.2,149.4l59.1,119.8c2.4,4.8,6.9,8.1,12.2,8.9l132.2,19.2c13.3,1.9,18.6,18.3,9,27.7l-95.6,93.2
		c-3.8,3.7-5.6,9.1-4.7,14.4L305,564.2c2.3,13.3-11.6,23.4-23.6,17.1l-118.2-62.1c-4.7-2.5-10.4-2.5-15.1,0L29.9,581.3
		c-11.9,6.3-25.8-3.9-23.6-17.1l22.6-131.6c0.9-5.3-0.8-10.6-4.7-14.4L-71.4,325c-9.6-9.4-4.3-25.8,9-27.7l132.2-19.2
		c5.3-0.8,9.9-4.1,12.2-8.9l59.1-119.8C147.1,137.4,164.3,137.4,170.2,149.4z"/>
</g>
</svg>
