<?xml version="1.0" encoding="utf-8"?>
<!-- Generator: Adobe Illustrator 19.0.0, SVG Export Plug-In . SVG Version: 6.00 Build 0)  -->
<svg version="1.1" id="Camada_1" xmlns="http://www.w3.org/2000/svg" xmlns:xlink="http://www.w3.org/1999/xlink" x="0px" y="0px"
	 width="1280px" height="1228px" viewBox="0 -214 1280 1228" style="enable-background:new 0 -214 1280 1228;" xml:space="preserve"
	>
<style type="text/css">
	.st0{fill:#FF2222;stroke:#000000;stroke-width:76;stroke-miterlimit:10;}
</style>
<g transform="translate(0.000000,1228.000000) scale(0.100000,-0.100000)">
	<path class="st0" d="M3580,12659c-418-47-855-233-1197-510c-191-155-415-411-552-631c-303-485-468-1037-512-1713
		c-76-1171,375-2000,1524-2802c212-148,408-273,822-523c570-344,790-490,1082-717c659-511,1296-1213,1537-1693c29-58,58-121,65-140
		l13-35l18,50c139,397,809,1167,1560,1795c329,275,617,476,1240,865c743,464,1044,683,1364,995c484,471,737,947,833,1567
		c24,155,24,661,0,863c-59,490-166,864-357,1240c-135,265-301,491-511,695c-369,358-792,567-1309,647c-133,20-528,17-665-5
		c-787-131-1435-583-1911-1332c-64-100-179-313-229-426l-39-86l-101,201c-55,111-137,260-182,332c-497,793-1205,1275-2008,1364
		C3960,12672,3687,12671,3580,12659z"/>
</g>
</svg>
