<?xml version="1.0" encoding="utf-8"?>
<!-- Generator: Adobe Illustrator 19.0.0, SVG Export Plug-In . SVG Version: 6.00 Build 0)  -->
<svg version="1.1" id="Camada_1" xmlns="http://www.w3.org/2000/svg" xmlns:xlink="http://www.w3.org/1999/xlink" x="0px" y="0px"
	 width="800px" height="1280px" viewBox="-239 -240 800 1280" style="enable-background:new -239 -240 800 1280;"
	 xml:space="preserve">
<style type="text/css">
	.st0{fill:#FFFFFF;stroke:#000000;stroke-width:60;stroke-miterlimit:10;}
</style>
<g>
	<g>
		<path class="st0" d="M375.8,160.8H243V28.1c0-12.2-9.9-22.1-22.1-22.1H96c-12.2,0-22.1,9.9-22.1,22.1v132.8H-58.8
			c-12.2,0-22.1,9.9-22.1,22.1v124.9c0,12.2,9.9,22.1,22.1,22.1H73.9v132.8c0,12.2,9.9,22.1,22.1,22.1h124.9
			c12.2,0,22.1-9.9,22.1-22.1V329.9h132.8c12.2,0,22.1-9.9,22.1-22.1V182.9C397.9,170.7,388,160.8,375.8,160.8z"/>
	</g>
</g>
</svg>
