<?xml version="1.0" encoding="utf-8"?>
<!-- Generator: Adobe Illustrator 19.0.0, SVG Export Plug-In . SVG Version: 6.00 Build 0)  -->
<svg version="1.1" xmlns="http://www.w3.org/2000/svg" xmlns:xlink="http://www.w3.org/1999/xlink" x="0px" y="0px" width="720px"
	 height="1280px" viewBox="0 0 720 1280" style="enable-background:new 0 0 720 1280;" xml:space="preserve">
<style type="text/css">
	.st0{fill:#23153F;}
	.st1{fill:#291335;}
	.st2{fill:#3F1B59;}
	.st3{fill:#270E44;}
	.st4{fill:#301244;}
	.st5{fill:#310F4C;}
	.st6{fill:#1C0730;}
	.st7{fill:#3A1042;}
	.st8{fill:#1B0938;}
	.st9{fill:#390E54;}
	.st10{fill:#130928;}
	.st11{fill:#19082D;}
	.st12{fill:#2B0B44;}
	.st13{fill:#1E0A2B;}
	.st14{fill:none;}
	.st15{fill:#22043F;}
	.st16{fill:#2F114F;}
	.st17{fill:#270944;}
	.st18{fill:#381466;}
	.st19{fill:#37134C;}
	.st20{fill:#1D082D;}
	.st21{fill:#3C0B68;}
	.st22{fill:#4A2189;}
	.st23{fill:#411670;}
	.st24{fill:#300F49;}
	.st25{fill:#260B3D;}
	.st26{fill:#260F47;}
	.st27{fill:#1A0730;}
	.st28{fill:#300A6D;}
	.st29{fill:#39125B;}
	.st30{fill:#25144F;}
	.st31{fill:#341560;}
	.st32{fill:#24063F;}
	.st33{fill:#441D6D;}
	.st34{fill:#1E093A;}
	.st35{fill:#4B2587;}
	.st36{fill:#5F2584;}
	.st37{fill:#311B42;}
	.st38{fill:#391D54;}
	.st39{fill:#241547;}
	.st40{fill:#513672;}
	.st41{fill:#3F2287;}
	.st42{fill:#50135B;}
	.st43{fill:#330B42;}
	.st44{fill:#460E60;}
	.st45{fill:#3A174C;}
	.st46{fill:#5A257A;}
	.st47{fill:#3E0F68;}
	.st48{fill:#46215B;}
	.st49{fill:#412A72;}
	.st50{fill:#29153D;}
	.st51{fill:#4E2F7F;}
	.st52{fill:#3A1B5E;}
	.st53{fill:#392668;}
	.st54{fill:#2C083F;}
	.st55{fill:#3B2156;}
	.st56{fill:#2F0F42;}
	.st57{fill:#372368;}
	.st58{fill:#35124C;}
</style>
<g id="Camada_1">
	<rect class="st0" width="720" height="1280"/>
	<rect class="st1" width="218.7" height="246"/>
	<g id="XMLID_2_">
		<g>
			<polygon class="st2" points="0,246 91,418 0,418 			"/>
		</g>
		<g>
		</g>
	</g>
	<path class="st3" d="M106,0"/>
	<g id="XMLID_1_">
		<g>
			<polygon class="st4" points="91,418 0,606 0,418 			"/>
			<polygon class="st5" points="91,599.3 0,699.3 0,606 			"/>
			<polygon class="st6" points="91,785.3 0,886 0,699.3 			"/>
			<polygon class="st4" points="91,888.7 0,1014.7 0,886 			"/>
			<polygon class="st7" points="0,1014.7 91,1116 0,1280 			"/>
		</g>
		<g>
		</g>
	</g>
	<polygon class="st8" points="0,0 109.3,123 0,246 	"/>
	<polygon class="st9" points="109.3,123 152.7,0 0,0 	"/>
	<polygon class="st10" points="109.3,123 109.3,246 0,246 	"/>
	<polygon class="st8" points="152.7,0 218.7,123 109.3,123 	"/>
	<polygon class="st8" points="218.7,123 109.3,246 218.7,246 	"/>
	<g id="XMLID_3_">
		<g>
			<polygon class="st11" points="523.5,0 523.5,123 381,0 			"/>
			<polygon class="st11" points="720,0 720,70.6 663.6,0 			"/>
			<polygon class="st12" points="663.6,0 593,65 523.5,0 			"/>
			<polygon class="st12" points="381,0 378,123 310,0 			"/>
			<polygon class="st13" points="310,0 218.7,123 218.7,0 			"/>
		</g>
		<g>
		</g>
	</g>
	<polygon class="st14" points="523.5,0 523.5,123 593,65 	"/>
	<g id="XMLID_4_">
		<g>
			<polygon class="st15" points="663.6,0 720,70.6 593,65 			"/>
			<polygon class="st16" points="593,65 523.5,123 523.5,0 			"/>
			<polygon class="st17" points="523.5,123 378,123 381,0 			"/>
			<polygon class="st18" points="310,0 378,123 218.7,123 			"/>
		</g>
		<g>
		</g>
	</g>
	<polygon class="st18" points="91,1116 0,1280 720,1280 	"/>
	<polygon class="st14" points="0,1280 91,1116 194,1280 	"/>
	<g id="XMLID_5_">
		<g>
			<polygon class="st19" points="246.1,1156.4 194,1280 91,1116 			"/>
		</g>
		<g>
		</g>
	</g>
	<polygon class="st20" points="246.1,1156.4 311,1240.3 194,1280 	"/>
	<polyline class="st21" points="311,1240.3 410.5,1280 194,1280 	"/>
	<polygon class="st22" points="566,1239.8 467,1280 720,1280 	"/>
	<polygon class="st23" points="246.1,1156.4 347.9,1183 311,1240.3 	"/>
	<polyline class="st23" points="311,1240.3 408.6,1279.3 425,1203.1 	"/>
	<polygon class="st24" points="467,1280 424.8,1203 562.9,1239.2 	"/>
	<polygon class="st25" points="91,599.3 91,418 207,488 	"/>
	<polygon class="st26" points="91,785.3 186,849 91,888.7 	"/>
	<polygon class="st27" points="246.1,1156.4 334,1083.4 347.9,1183 	"/>
	<polygon class="st28" points="424.8,1203 502.7,1116 562.9,1239.2 	"/>
	<polygon class="st14" points="91,418 91,418 109.3,246 0,246 	"/>
	<polygon class="st29" points="218.7,246 109.3,246 91,418 	"/>
	<polygon class="st28" points="207,488 91,418 218.7,246 	"/>
	<polygon class="st30" points="91,418 91,599.3 0,606 	"/>
	<polygon class="st31" points="91,785.3 0,699.3 91,599.3 	"/>
	<g id="XMLID_6_">
		<g>
			<polygon class="st32" points="194,1026 232.6,1122.7 186,1140.8 			"/>
			<polygon class="st33" points="334,1083.4 232.6,1122.7 194,1026 			"/>
			<polygon class="st31" points="232.6,1122.7 246.1,1156.4 186,1140.8 			"/>
			<polygon class="st24" points="194,1026 186,1140.8 91,1116 			"/>
		</g>
		<g>
		</g>
	</g>
	<polygon class="st34" points="347.9,1183 424.8,1203 334,1083.4 	"/>
	<polyline class="st31" points="0,1014.7 91,1116 91,1020.4 91,888.7 194,1026 	"/>
	<polygon class="st35" points="91,785.3 161,698 91,599.3 	"/>
	<polygon class="st36" points="186,849 150.7,776 161,698 	"/>
	<polygon class="st37" points="91,785.3 150.7,776 186,852 	"/>
	<polygon class="st38" points="378,123 207,488 218.7,123 	"/>
	<polygon class="st39" points="214.7,246 285.4,320.7 207,488 	"/>
	<polygon class="st40" points="285.4,320.7 218.7,123 214.7,246 	"/>
	<polygon class="st40" points="523.5,123 432,371.3 378,123 	"/>
	<polygon class="st41" points="285.4,320.7 432,371.3 378,123 	"/>
	<polygon class="st42" points="523.5,123 593,213.5 593,65 	"/>
	<polygon class="st43" points="593,65 720,70.6 663.6,0 	"/>
	<polygon class="st44" points="593,213.5 720,70.6 593,65 	"/>
	<polygon class="st45" points="476,251.9 593,213.5 523.5,123 	"/>
	<polygon class="st46" points="593,213.5 720,229.5 720,70.6 	"/>
	<polygon class="st47" points="432,371.3 593,213.5 475.4,253.5 	"/>
	<polygon class="st48" points="207,488 432,371.3 285.4,320.7 	"/>
	<g id="XMLID_7_">
		<g>
			<polygon class="st31" points="186,852 142.5,957.3 91,888.7 			"/>
		</g>
		<g>
		</g>
	</g>
	<polygon class="st31" points="161,698 207,488 91,599.3 	"/>
	<polygon class="st31" points="566,1239.8 720,1083.4 720,1280 	"/>
	<polygon class="st31" points="334,1083.4 502.7,1116 424.8,1203 	"/>
	<polygon class="st49" points="502.7,1116 661.1,1143.2 566,1239.8 	"/>
	<polygon class="st49" points="194,1026 347.9,957.3 334,1083.4 	"/>
	<polygon class="st49" points="161,698 299.3,754 186,852 	"/>
	<polygon class="st50" points="207,488 299.3,754 161,698 	"/>
	<polygon class="st26" points="334,1083.4 581.9,988 502.7,1116 	"/>
	<polygon class="st4" points="581.9,988 661.1,1143.2 502.7,1116 	"/>
	<polygon class="st31" points="347.9,957.3 581.9,988 334,1083.4 	"/>
	<polygon class="st51" points="194,1026 91,1020.4 91,888.7 	"/>
	<polygon class="st19" points="142.5,957.3 347.9,957.3 194,1026 	"/>
	<polygon class="st18" points="581.9,988 720,1083.4 661.1,1143.2 	"/>
	<polygon class="st31" points="581.9,988 720,924 720,1083.4 	"/>
	<polygon class="st52" points="521.6,283.5 720,229.5 593,213.5 	"/>
	<polygon class="st38" points="432,371.3 566,471.3 521.6,283.5 	"/>
	<polygon class="st53" points="432,371.3 299.3,523 207,488 	"/>
	<polygon class="st8" points="299.3,754 299.3,523 207,488 	"/>
	<polygon class="st6" points="186,852 347.9,957.3 142.5,957.3 	"/>
	<polygon class="st13" points="347.9,957.3 510,875 581.9,988 	"/>
	<polygon class="st31" points="299.3,754 347.9,957.3 186,852 	"/>
	<polygon class="st54" points="299.3,523 566,471.3 432,371.3 	"/>
	<polygon class="st2" points="299.3,754 423,664 299.3,523 	"/>
	<polygon class="st6" points="423,664 443,819 299.3,754 	"/>
	<polygon class="st51" points="443,819 347.9,957.3 299.3,754 	"/>
	<polygon class="st49" points="443,819 510,875 347.9,957.3 	"/>
	<polygon class="st9" points="720,229.5 566,471.3 521.6,283.5 	"/>
	<polygon class="st4" points="510,875 720,924 581.9,988 	"/>
	<polygon class="st31" points="443,819 589,721 510,875 	"/>
	<polygon class="st55" points="589,721 423,664 443,819 	"/>
	<polygon class="st18" points="637.4,359.2 720,377.4 720,229.5 	"/>
	<polygon class="st41" points="566,471.3 720,377.4 637.4,359.2 	"/>
	<polygon class="st29" points="589,721 720,924 510,875 	"/>
	<polygon class="st26" points="589,721 720,644.1 720,924.1 	"/>
	<polygon class="st50" points="423,664 566,471.3 299.3,523 	"/>
	<polygon class="st56" points="566,471.3 720,514 720,377.4 	"/>
	<polygon class="st49" points="659.9,679.4 581.9,586.7 589,724 	"/>
	<polygon class="st57" points="581.9,586.7 423,664 589,721 	"/>
	<polygon class="st28" points="566,471.3 581.9,586.7 423,664 	"/>
	<polygon class="st36" points="720,514 581.9,586.7 566,471.3 	"/>
	<polygon class="st58" points="659.9,679.4 720,514 581.9,586.7 	"/>
</g>
<g id="Camada_2">
</g>
</svg>
