<?xml version="1.0" encoding="utf-8"?>
<!-- Generator: Adobe Illustrator 19.0.0, SVG Export Plug-In . SVG Version: 6.00 Build 0)  -->
<svg version="1.1" xmlns="http://www.w3.org/2000/svg" xmlns:xlink="http://www.w3.org/1999/xlink" x="0px" y="0px" width="720px"
	 height="1280px" viewBox="0 0 720 1280" style="enable-background:new 0 0 720 1280;" xml:space="preserve">
<style type="text/css">
	.st0{fill:url(#XMLID_3_);}
	.st1{fill:url(#SVGID_1_);}
	.st2{fill:url(#SVGID_2_);}
	.st3{fill:url(#SVGID_3_);}
	.st4{fill:url(#SVGID_4_);}
	.st5{fill:url(#SVGID_5_);}
	.st6{fill:url(#SVGID_6_);}
	.st7{fill:url(#SVGID_7_);}
	.st8{fill:url(#SVGID_8_);}
	.st9{fill:url(#SVGID_9_);}
	.st10{fill:url(#SVGID_10_);}
	.st11{fill:url(#SVGID_11_);}
	.st12{fill:url(#SVGID_12_);}
</style>
<g id="Camada_1">
	<g id="Camada_1_1_">
		
			<radialGradient id="XMLID_3_" cx="384" cy="28" r="872.0367" gradientTransform="matrix(1 0 0 -1 0 1280)" gradientUnits="userSpaceOnUse">
			<stop  offset="0" style="stop-color:#6A78FF"/>
			<stop  offset="1" style="stop-color:#00002A"/>
		</radialGradient>
		<rect id="XMLID_1_" class="st0" width="720" height="1280"/>
	</g>
	<g id="Camada_2">
	</g>
	<linearGradient id="SVGID_1_" gradientUnits="userSpaceOnUse" x1="9.4795" y1="1154.3842" x2="216.4384" y2="1154.3842">
		<stop  offset="0" style="stop-color:#020034;stop-opacity:0.1"/>
		<stop  offset="1" style="stop-color:#1300BF;stop-opacity:0.1"/>
	</linearGradient>
	<polygon class="st1" points="61.2,1244 9.5,1154.4 61.2,1064.8 164.7,1064.8 216.4,1154.4 164.7,1244 	"/>
	<linearGradient id="SVGID_2_" gradientUnits="userSpaceOnUse" x1="175.4795" y1="1064.7683" x2="382.4384" y2="1064.7683">
		<stop  offset="0" style="stop-color:#020034;stop-opacity:0.1"/>
		<stop  offset="1" style="stop-color:#1300BF;stop-opacity:0.1"/>
	</linearGradient>
	<polygon class="st2" points="227.2,1154.4 175.5,1064.8 227.2,975.2 330.7,975.2 382.4,1064.8 330.7,1154.4 	"/>
	<linearGradient id="SVGID_3_" gradientUnits="userSpaceOnUse" x1="9.4795" y1="966.3842" x2="216.4384" y2="966.3842">
		<stop  offset="0" style="stop-color:#020034;stop-opacity:0.1"/>
		<stop  offset="1" style="stop-color:#1300BF;stop-opacity:0.1"/>
	</linearGradient>
	<polygon class="st3" points="61.2,1056 9.5,966.4 61.2,876.8 164.7,876.8 216.4,966.4 164.7,1056 	"/>
	<linearGradient id="SVGID_4_" gradientUnits="userSpaceOnUse" x1="493.4795" y1="712.3842" x2="700.4384" y2="712.3842">
		<stop  offset="0" style="stop-color:#020034;stop-opacity:0.1"/>
		<stop  offset="1" style="stop-color:#1300BF;stop-opacity:0.1"/>
	</linearGradient>
	<polygon class="st4" points="545.2,802 493.5,712.4 545.2,622.8 648.7,622.8 700.4,712.4 648.7,802 	"/>
	<linearGradient id="SVGID_5_" gradientUnits="userSpaceOnUse" x1="-103.4795" y1="729.6158" x2="103.4795" y2="729.6158">
		<stop  offset="0" style="stop-color:#020034;stop-opacity:0.1"/>
		<stop  offset="1" style="stop-color:#1300BF;stop-opacity:0.1"/>
	</linearGradient>
	<polygon class="st5" points="-51.7,819.2 -103.5,729.6 -51.7,640 51.7,640 103.5,729.6 51.7,819.2 	"/>
	<linearGradient id="SVGID_6_" gradientUnits="userSpaceOnUse" x1="479.4283" y1="1190.3842" x2="686.3873" y2="1190.3842">
		<stop  offset="0" style="stop-color:#020034;stop-opacity:0.1"/>
		<stop  offset="1" style="stop-color:#1300BF;stop-opacity:0.1"/>
	</linearGradient>
	<polygon class="st6" points="531.2,1280 479.4,1190.4 531.2,1100.8 634.6,1100.8 686.4,1190.4 634.6,1280 	"/>
	<linearGradient id="SVGID_7_" gradientUnits="userSpaceOnUse" x1="166.2184" y1="718.3842" x2="373.1773" y2="718.3842">
		<stop  offset="0" style="stop-color:#020018;stop-opacity:0"/>
		<stop  offset="1" style="stop-color:#13003D;stop-opacity:0.1"/>
	</linearGradient>
	<polygon class="st7" points="218,808 166.2,718.4 218,628.8 321.4,628.8 373.2,718.4 321.4,808 	"/>
	<linearGradient id="SVGID_8_" gradientUnits="userSpaceOnUse" x1="324.7696" y1="1010.632" x2="531.7285" y2="1010.632">
		<stop  offset="0" style="stop-color:#020018;stop-opacity:0"/>
		<stop  offset="1" style="stop-color:#13003D;stop-opacity:0.1"/>
	</linearGradient>
	<polygon class="st8" points="376.5,1100.2 324.8,1010.6 376.5,921 480,921 531.7,1010.6 480,1100.2 	"/>
</g>
<g id="Camada_2_1_">
</g>
<g id="Camada_3">
	<linearGradient id="SVGID_9_" gradientUnits="userSpaceOnUse" x1="493.4795" y1="921.0162" x2="700.4384" y2="921.0162">
		<stop  offset="0" style="stop-color:#020072;stop-opacity:0.2"/>
		<stop  offset="1" style="stop-color:#1300AF;stop-opacity:0.2"/>
	</linearGradient>
	<path class="st9" d="M648.7,831.4H545.2L493.5,921l51.7,89.6h103.5l51.7-89.6L648.7,831.4z M641.7,998.5h-89.4L507.5,921l44.7-77.4
		h89.4l44.7,77.4L641.7,998.5z"/>
	<linearGradient id="SVGID_10_" gradientUnits="userSpaceOnUse" x1="43.4951" y1="622.7683" x2="250.454" y2="622.7683">
		<stop  offset="0" style="stop-color:#020072;stop-opacity:0.1"/>
		<stop  offset="1" style="stop-color:#1300AF;stop-opacity:0.1"/>
	</linearGradient>
	<path class="st10" d="M198.7,533.2H95.2l-51.7,89.6l51.7,89.6h103.5l51.7-89.6L198.7,533.2z M191.7,700.2h-89.4l-44.7-77.4
		l44.7-77.4h89.4l44.7,77.4L191.7,700.2z"/>
	<linearGradient id="SVGID_11_" gradientUnits="userSpaceOnUse" x1="272.4694" y1="533.1525" x2="479.4283" y2="533.1525">
		<stop  offset="0" style="stop-color:#020036;stop-opacity:0.2"/>
		<stop  offset="1" style="stop-color:#13005F;stop-opacity:0.2"/>
	</linearGradient>
	<path class="st11" d="M427.7,443.5H324.2l-51.7,89.6l51.7,89.6h103.5l51.7-89.6L427.7,443.5z M423.8,616.1h-95.8l-47.9-82.9
		l47.9-82.9h95.8l47.9,82.9L423.8,616.1z"/>
	<linearGradient id="SVGID_12_" gradientUnits="userSpaceOnUse" x1="324.7696" y1="810.0001" x2="531.7285" y2="810.0001">
		<stop  offset="0" style="stop-color:#020036;stop-opacity:0.2"/>
		<stop  offset="1" style="stop-color:#13005F;stop-opacity:0.2"/>
	</linearGradient>
	<path class="st12" d="M480,720.4H376.5L324.8,810l51.7,89.6H480l51.7-89.6L480,720.4z M476.1,892.9h-95.8L332.5,810l47.9-82.9h95.8
		L524,810L476.1,892.9z"/>
</g>
</svg>
