<?xml version="1.0" encoding="utf-8"?>
<!-- Generator: Adobe Illustrator 19.0.0, SVG Export Plug-In . SVG Version: 6.00 Build 0)  -->
<svg version="1.1" xmlns="http://www.w3.org/2000/svg" xmlns:xlink="http://www.w3.org/1999/xlink" x="0px" y="0px" width="720px"
	 height="1280px" viewBox="0 0 720 1280" style="enable-background:new 0 0 720 1280;" xml:space="preserve">
<style type="text/css">
	.st0{fill:url(#SVGID_1_);}
	.st1{fill:url(#SVGID_2_);}
	.st2{fill:url(#SVGID_3_);}
	.st3{fill:url(#SVGID_4_);}
	.st4{fill:url(#SVGID_5_);}
	.st5{fill:url(#SVGID_6_);}
	.st6{fill:url(#SVGID_7_);}
	.st7{fill:url(#SVGID_8_);}
</style>
<g id="Camada_1">
	<g id="Camada_2">
	</g>
	<linearGradient id="SVGID_1_" gradientUnits="userSpaceOnUse" x1="-29.9379" y1="639.03" x2="774.0621" y2="641.03">
		<stop  offset="0" style="stop-color:#FF555E"/>
		<stop  offset="1" style="stop-color:#94002D"/>
	</linearGradient>
	<rect class="st0" width="720" height="1280"/>
</g>
<g id="Camada_2_1_">
	<g>
		<g>
			<linearGradient id="SVGID_2_" gradientUnits="userSpaceOnUse" x1="88.4908" y1="1323.3134" x2="327.4276" y2="767.9855">
				<stop  offset="5.291005e-003" style="stop-color:#9A1D23;stop-opacity:0.3"/>
				<stop  offset="1" style="stop-color:#FF5597;stop-opacity:0.7"/>
			</linearGradient>
			<path class="st1" d="M189,733.9c-71.3,0-136.9,24.3-189,64.9V1280h383.1c69.2-56.4,113.4-142.3,113.4-238.5
				C496.5,871.6,358.9,733.9,189,733.9z"/>
		</g>
	</g>
	<g>
		<g>
			
				<linearGradient id="SVGID_3_" gradientUnits="userSpaceOnUse" x1="1.481" y1="859.2401" x2="108.1542" y2="611.3143" gradientTransform="matrix(1 0 0 1 285.0285 -173.2434)">
				<stop  offset="0" style="stop-color:#9A1D23;stop-opacity:0.1"/>
				<stop  offset="1" style="stop-color:#FF5597;stop-opacity:0.5"/>
			</linearGradient>
			<ellipse class="st2" cx="340.4" cy="560.7" rx="123.1" ry="136.2"/>
		</g>
	</g>
	<linearGradient id="SVGID_4_" gradientUnits="userSpaceOnUse" x1="484.7056" y1="1319.8727" x2="652.4628" y2="929.9778">
		<stop  offset="0" style="stop-color:#9A1D23;stop-opacity:0.1"/>
		<stop  offset="1" style="stop-color:#FF5597;stop-opacity:0.5"/>
	</linearGradient>
	<path class="st3" d="M720,963.1c-94.7-66.9-226.6-52.3-304.1,37.1c-69.8,80.5-73.3,196-15.3,279.7H720V963.1z"/>
	<linearGradient id="SVGID_5_" gradientUnits="userSpaceOnUse" x1="480.2722" y1="435.5186" x2="675.2928" y2="-17.7408">
		<stop  offset="0" style="stop-color:#9A1D23;stop-opacity:0.1"/>
		<stop  offset="1" style="stop-color:#FF5597;stop-opacity:0.5"/>
	</linearGradient>
	<path class="st4" d="M360,176.9c0,169.8,137.7,307.5,307.5,307.5c17.9,0,35.4-1.5,52.5-4.5V0H416C380.7,50,360,111.1,360,176.9z"/>
	<linearGradient id="SVGID_6_" gradientUnits="userSpaceOnUse" x1="23.9187" y1="873.4064" x2="235.9441" y2="380.6252">
		<stop  offset="0" style="stop-color:#9A1D23;stop-opacity:0.3"/>
		<stop  offset="1" style="stop-color:#FF5597;stop-opacity:0.6"/>
	</linearGradient>
	<path class="st5" d="M0,357.9v500.5c91.4,33.9,198.1,16.3,274.5-54.4C382.6,703.9,389.1,535,288.9,426.8
		C213.2,345.1,98.3,321.4,0,357.9z"/>
	<linearGradient id="SVGID_7_" gradientUnits="userSpaceOnUse" x1="128.3489" y1="565.7972" x2="372.653" y2="-2.0048">
		<stop  offset="0" style="stop-color:#F85190;stop-opacity:0.5905"/>
		<stop  offset="1" style="stop-color:#9A1D23;stop-opacity:0.3"/>
	</linearGradient>
	<path class="st6" d="M0,95.7v363c56,76.4,146.3,126.1,248.3,126.1c169.8,0,307.5-137.7,307.5-307.5c0-122.1-71.1-227.5-174.1-277.2
		H114.9C69.2,22,29.7,55.1,0,95.7z"/>
	<linearGradient id="SVGID_8_" gradientUnits="userSpaceOnUse" x1="631.1636" y1="1302.8242" x2="367.9757" y2="8.1724">
		<stop  offset="0" style="stop-color:#9A1D23;stop-opacity:0.1"/>
		<stop  offset="1" style="stop-color:#FF5597;stop-opacity:0.3"/>
	</linearGradient>
	<path class="st7" d="M720,0H389.7c-277.7,236.7-334.6,654.4-120,968c110.9,162.2,274.1,266.8,450.3,306V0z"/>
</g>
</svg>
