<?xml version="1.0" encoding="utf-8"?>
<!-- Generator: Adobe Illustrator 19.0.0, SVG Export Plug-In . SVG Version: 6.00 Build 0)  -->
<svg version="1.1" id="Camada_1" xmlns="http://www.w3.org/2000/svg" xmlns:xlink="http://www.w3.org/1999/xlink" x="0px" y="0px"
	 width="720px" height="1280px" viewBox="0 0 720 1280" style="enable-background:new 0 0 720 1280;" xml:space="preserve">
<style type="text/css">
	.st0{fill:#BFFFBF;}
	.st1{fill:#F7FCFC;}
</style>
<g id="Camada_2">
</g>
<path class="st0" d="M337.9,288.8"/>
<g>
	<g>
		<path class="st1" d="M371.5,749.5h-2c-26,0-47-21-47-47v-276c0-26,21-47,47-47h2c26,0,47,21,47,47v276
			C418.5,728.5,397.5,749.5,371.5,749.5z"/>
		<g>
			<g id="XMLID_1_">
				<g>
					<path class="st1" d="M561.3,384c16,20.5,12.3,50-8.1,66c-20.5,16-50,12.4-66-8.1L380.5,305.2c-6.7-8.6-10-18.8-10-28.9
						c0-8.7,2.4-17.4,7.2-25h80L561.3,384z"/>
					<path class="st1" d="M457.7,251.3h-80c2.8-4.5,6.5-8.6,10.9-12.1c18.1-14.2,43.4-12.9,60,1.8c4.2,4.4,7.1,7.9,8.4,9.4
						c0.2,0.2,0.3,0.4,0.5,0.6L457.7,251.3C457.6,251.3,457.7,251.3,457.7,251.3z"/>
					<path class="st1" d="M457.6,251.3l-0.2-0.3C457.5,251.1,457.6,251.2,457.6,251.3z"/>
					<path class="st1" d="M454.5,247.3l2.4,3.1c-1.3-1.5-4.1-5-8.4-9.4C450.7,242.9,452.7,245,454.5,247.3z"/>
					<path class="st1" d="M370.5,200.7c34.4,0,63.9,25.5,78.1,40.3c-16.6-14.7-41.9-16-60-1.8c-4.4,3.5-8.1,7.6-10.9,12.1h-14.3
						c-2.8-4.5-6.5-8.6-10.9-12.1c-18.1-14.2-43.4-12.9-60,1.8C306.6,226.2,336.1,200.7,370.5,200.7z"/>
					<path class="st1" d="M363.3,251.3h14.3c-4.7,7.6-7.2,16.2-7.2,25C370.5,267.6,368.1,258.9,363.3,251.3z"/>
					<path class="st1" d="M363.3,251.3c4.7,7.6,7.2,16.2,7.2,25c0,10.1-3.3,20.3-10,28.9L253.8,441.9c-16,20.5-45.5,24.1-66,8.1
						c-20.4-16-24.1-45.5-8.1-66l103.6-132.7H363.3z"/>
					<path class="st1" d="M363.3,251.3h-80c0,0,0,0,0,0l0.2-0.3c0.1-0.2,0.3-0.3,0.4-0.6c1.3-1.5,4.1-5,8.4-9.4
						c16.6-14.7,41.9-16,60-1.8C356.9,242.7,360.5,246.8,363.3,251.3z"/>
					<path class="st1" d="M286.5,247.3c1.8-2.3,3.8-4.4,5.9-6.3c-4.2,4.4-7.1,7.9-8.4,9.4L286.5,247.3z"/>
					<path class="st1" d="M283.6,251l-0.2,0.3C283.4,251.2,283.5,251.1,283.6,251z"/>
				</g>
				<g>
				</g>
			</g>
		</g>
	</g>
	<path class="st1" d="M378.4,302.3c-5.6-32.4-10.9-32.5-15.8,0C367.9,297.9,373.1,297.9,378.4,302.3z"/>
</g>
</svg>
