<?xml version="1.0" encoding="UTF-8" standalone="no"?><!-- Generator: Gravit.io --><svg xmlns="http://www.w3.org/2000/svg" xmlns:xlink="http://www.w3.org/1999/xlink" style="isolation:isolate" viewBox="0 0 720 1280" width="720pt" height="1280pt"><defs><clipPath id="_clipPath_WlTHc5IeaxXsorp6XByLiTRNJTGMpwr2"><rect width="720" height="1280"/></clipPath></defs><g clip-path="url(#_clipPath_WlTHc5IeaxXsorp6XByLiTRNJTGMpwr2)"><clipPath id="_clipPath_FWLAKESPMRBRIFqVghgEboAkVodKxyDv"><rect x="0" y="0" width="720" height="1280" transform="matrix(1,0,0,1,0,0)" fill="rgb(255,255,255)"/></clipPath><g clip-path="url(#_clipPath_FWLAKESPMRBRIFqVghgEboAkVodKxyDv)"><g><rect x="-3.03" y="0" width="723.03" height="1283.333" transform="matrix(1,0,0,1,0,0)" fill="rgb(137,210,255)"/><path d=" M -2.313 419.007 Q 200.941 313.997 319.253 352.183 C 437.565 390.368 522.507 436.736 630.202 432.645 Q 737.896 428.554 719.694 425.826 L 721.211 1285 L 2.238 1286.364 L -2.313 419.007 Z " fill="rgb(192,231,255)"/><path d=" M -78.758 857 L 127.303 546.394 L 327.303 873.667 L -78.758 857 Z " fill="rgb(218,241,255)"/><path d=" M 158.234 859.192 L 394.31 497.563 L 637.243 869.207 L 158.234 859.192 Z " fill="rgb(218,241,255)"/><path d=" M 373.629 821.812 L 609.705 460.184 L 852.637 831.828 L 373.629 821.812 Z " fill="rgb(218,241,255)"/><g><path d=" M 125.013 788.487 L 55.404 788.487 L 90.209 728.204 L 125.013 788.487 Z " fill="rgb(87,143,179)"/><path d=" M 114.471 762.954 L 65.702 762.954 L 90.087 720.718 L 114.471 762.954 Z " fill="rgb(87,143,179)"/><path d=" M 136.807 833.705 L 45.453 833.705 L 91.13 791.469 L 136.807 833.705 Z " fill="rgb(87,143,179)"/><path d=" M 135.831 842.731 L 44.477 842.731 L 90.154 800.496 L 135.831 842.731 Z " fill="rgb(87,143,179)"/><path d=" M 136.563 822.692 L 43.745 822.692 L 90.154 742.31 L 136.563 822.692 Z " fill="rgb(87,143,179)"/><rect x="80.938" y="840.607" width="19.761" height="21.713" transform="matrix(1,0,0,1,0,0)" fill="rgb(87,143,179)"/></g><g><path d=" M 181.928 813.162 L 112.319 813.162 L 147.124 752.878 L 181.928 813.162 Z " fill="rgb(96,155,191)"/><path d=" M 171.386 787.628 L 122.617 787.628 L 147.002 745.393 L 171.386 787.628 Z " fill="rgb(96,155,191)"/><path d=" M 193.721 858.379 L 102.368 858.379 L 148.044 816.144 L 193.721 858.379 Z " fill="rgb(96,155,191)"/><path d=" M 192.746 867.406 L 101.392 867.406 L 147.069 825.17 L 192.746 867.406 Z " fill="rgb(96,155,191)"/><path d=" M 193.477 847.366 L 100.66 847.366 L 147.069 766.984 L 193.477 847.366 Z " fill="rgb(96,155,191)"/><rect x="137.853" y="865.282" width="19.761" height="21.713" transform="matrix(1,0,0,1,0,0)" fill="rgb(96,155,191)"/></g><g><path d=" M 563.428 782.662 L 493.819 782.662 L 528.624 722.378 L 563.428 782.662 Z " fill="rgb(86,141,174)"/><path d=" M 552.886 757.128 L 504.117 757.128 L 528.502 714.893 L 552.886 757.128 Z " fill="rgb(86,141,174)"/><path d=" M 575.221 827.879 L 483.868 827.879 L 529.544 785.644 L 575.221 827.879 Z " fill="rgb(86,141,174)"/><path d=" M 574.246 836.906 L 482.892 836.906 L 528.569 794.67 L 574.246 836.906 Z " fill="rgb(86,141,174)"/><path d=" M 574.977 816.866 L 482.16 816.866 L 528.569 736.484 L 574.977 816.866 Z " fill="rgb(86,141,174)"/><rect x="519.353" y="834.782" width="19.761" height="21.713" transform="matrix(1,0,0,1,0,0)" fill="rgb(86,141,174)"/></g><path d=" M -15.152 860.606 L 269.872 847.089 L 535.5 834.492 Q 671.625 822.798 719.625 801.75 L 722.727 1117.405 L 0 1137.879 L -15.152 860.606 Z " fill="rgb(255,255,255)"/><g><path d=" M 495.15 933.653 L 387.437 933.653 L 441.294 840.371 L 495.15 933.653 Z " fill="rgb(96,155,191)"/><path d=" M 478.837 894.142 L 403.372 894.142 L 441.105 828.788 L 478.837 894.142 Z " fill="rgb(96,155,191)"/><path d=" M 513.399 1003.621 L 372.039 1003.621 L 442.719 938.267 L 513.399 1003.621 Z " fill="rgb(96,155,191)"/><path d=" M 511.889 1017.589 L 370.529 1017.589 L 441.209 952.235 L 511.889 1017.589 Z " fill="rgb(96,155,191)"/><path d=" M 513.021 986.581 L 369.396 986.581 L 441.209 862.198 L 513.021 986.581 Z " fill="rgb(96,155,191)"/><rect x="426.948" y="1014.303" width="30.579" height="33.599" transform="matrix(1,0,0,1,0,0)" fill="rgb(96,155,191)"/></g><path d=" M 746 1024.26 Q 519 975.378 219 1045.035 Q -81 1114.691 -54.375 996 L -3 1287 L 726 1287 L 746 1024.26 Z " fill="rgb(238,246,255)"/></g></g></g></svg>