<?xml version="1.0" encoding="UTF-8" standalone="no"?><!-- Generator: Gravit.io --><svg xmlns="http://www.w3.org/2000/svg" xmlns:xlink="http://www.w3.org/1999/xlink" style="isolation:isolate" viewBox="0 0 800 1280" width="800pt" height="1280pt"><defs><clipPath id="_clipPath_pDFroewqsQ3nt8P1eEYlz11vgNwPuh5A"><rect width="800" height="1280"/></clipPath></defs><g clip-path="url(#_clipPath_pDFroewqsQ3nt8P1eEYlz11vgNwPuh5A)"><g><g><mask id="_mask_0LHiZlxttf9LpJbmlK9hwyTlgggozSd0" x="-200%" y="-200%" width="400%" height="400%"><rect x="-200%" y="-200%" width="400%" height="400%" style="fill:white;"/><path d=" M 283.3 858.4 L 166.1 655.2 C 160.7 645.8 160.7 634.2 166.1 624.8 L 283.3 421.6 C 288.7 412.2 298.8 406.4 309.7 406.4 L 544.3 406.4 C 555.2 406.4 565.2 412.2 570.7 421.6 L 687.9 624.8 C 693.3 634.2 693.3 645.8 687.9 655.2 L 570.7 858.4 C 565.3 867.8 555.2 873.6 544.3 873.6 L 309.7 873.6 C 298.8 873.6 288.8 867.8 283.3 858.4 Z " fill="black" stroke="none"/></mask><path d=" M 283.3 858.4 L 166.1 655.2 C 160.7 645.8 160.7 634.2 166.1 624.8 L 283.3 421.6 C 288.7 412.2 298.8 406.4 309.7 406.4 L 544.3 406.4 C 555.2 406.4 565.2 412.2 570.7 421.6 L 687.9 624.8 C 693.3 634.2 693.3 645.8 687.9 655.2 L 570.7 858.4 C 565.3 867.8 555.2 873.6 544.3 873.6 L 309.7 873.6 C 298.8 873.6 288.8 867.8 283.3 858.4 Z " fill="rgb(255,255,255)"/><path d=" M 283.3 858.4 L 166.1 655.2 C 160.7 645.8 160.7 634.2 166.1 624.8 L 283.3 421.6 C 288.7 412.2 298.8 406.4 309.7 406.4 L 544.3 406.4 C 555.2 406.4 565.2 412.2 570.7 421.6 L 687.9 624.8 C 693.3 634.2 693.3 645.8 687.9 655.2 L 570.7 858.4 C 565.3 867.8 555.2 873.6 544.3 873.6 L 309.7 873.6 C 298.8 873.6 288.8 867.8 283.3 858.4 Z " fill="rgb(255,255,255)" mask="url(#_mask_0LHiZlxttf9LpJbmlK9hwyTlgggozSd0)" vector-effect="non-scaling-stroke" stroke-width="120" stroke="rgb(0,0,0)" stroke-linejoin="miter" stroke-linecap="butt" stroke-miterlimit="10"/></g></g><g><mask id="_mask_E8O1t2M8AIecznxp6zyLkYgBprclMUku" x="-200%" y="-200%" width="400%" height="400%"><rect x="-200%" y="-200%" width="400%" height="400%" style="fill:white;"/><path d=" M 454.822 463.148 L 493.422 541.348 C 497.922 550.448 506.622 556.848 516.722 558.248 L 603.022 570.748 C 628.422 574.448 638.522 605.648 620.222 623.548 L 557.722 684.448 C 550.422 691.548 547.122 701.848 548.822 711.848 L 563.522 797.848 C 567.822 823.148 541.322 842.448 518.622 830.448 L 441.422 789.848 C 432.422 785.148 421.622 785.148 412.622 789.848 L 335.422 830.448 C 312.722 842.348 286.122 823.148 290.522 797.848 L 305.222 711.848 C 306.922 701.848 303.622 691.548 296.322 684.448 L 233.822 623.548 C 215.422 605.648 225.622 574.448 251.022 570.748 L 337.322 558.248 C 347.422 556.748 356.122 550.448 360.622 541.348 L 399.222 463.148 C 410.622 440.148 443.422 440.148 454.822 463.148 Z " fill="black" stroke="none"/></mask><path d=" M 454.822 463.148 L 493.422 541.348 C 497.922 550.448 506.622 556.848 516.722 558.248 L 603.022 570.748 C 628.422 574.448 638.522 605.648 620.222 623.548 L 557.722 684.448 C 550.422 691.548 547.122 701.848 548.822 711.848 L 563.522 797.848 C 567.822 823.148 541.322 842.448 518.622 830.448 L 441.422 789.848 C 432.422 785.148 421.622 785.148 412.622 789.848 L 335.422 830.448 C 312.722 842.348 286.122 823.148 290.522 797.848 L 305.222 711.848 C 306.922 701.848 303.622 691.548 296.322 684.448 L 233.822 623.548 C 215.422 605.648 225.622 574.448 251.022 570.748 L 337.322 558.248 C 347.422 556.748 356.122 550.448 360.622 541.348 L 399.222 463.148 C 410.622 440.148 443.422 440.148 454.822 463.148 Z " fill="rgb(255,255,255)"/><path d=" M 454.822 463.148 L 493.422 541.348 C 497.922 550.448 506.622 556.848 516.722 558.248 L 603.022 570.748 C 628.422 574.448 638.522 605.648 620.222 623.548 L 557.722 684.448 C 550.422 691.548 547.122 701.848 548.822 711.848 L 563.522 797.848 C 567.822 823.148 541.322 842.448 518.622 830.448 L 441.422 789.848 C 432.422 785.148 421.622 785.148 412.622 789.848 L 335.422 830.448 C 312.722 842.348 286.122 823.148 290.522 797.848 L 305.222 711.848 C 306.922 701.848 303.622 691.548 296.322 684.448 L 233.822 623.548 C 215.422 605.648 225.622 574.448 251.022 570.748 L 337.322 558.248 C 347.422 556.748 356.122 550.448 360.622 541.348 L 399.222 463.148 C 410.622 440.148 443.422 440.148 454.822 463.148 Z " fill="rgb(255,255,255)" mask="url(#_mask_E8O1t2M8AIecznxp6zyLkYgBprclMUku)" vector-effect="non-scaling-stroke" stroke-width="40" stroke="rgb(0,0,0)" stroke-linejoin="miter" stroke-linecap="butt" stroke-miterlimit="10"/></g></g></svg>