<?xml version="1.0" encoding="utf-8"?>
<!-- Generator: Adobe Illustrator 19.0.0, SVG Export Plug-In . SVG Version: 6.00 Build 0)  -->
<svg version="1.1" id="Camada_1" xmlns="http://www.w3.org/2000/svg" xmlns:xlink="http://www.w3.org/1999/xlink" x="0px" y="0px"
	 width="1104px" height="1280px" viewBox="192 0 1104 1280" style="enable-background:new 192 0 1104 1280;" xml:space="preserve">
<style type="text/css">
	.st0{fill:#FFFFFF;}
</style>
<g transform="translate(0.000000,1280.000000) scale(0.100000,-0.100000)">
	<path class="st0" d="M12010,12790c-63-5-234-13-380-20c-1221-51-2521-243-3809-561c-242-60-635-166-801-215
		c-524-157-898-281-1295-429c-246-92-530-207-543-220c-4-3-8-1807-10-4008s-7-3036-11-3040s-47,6-96,23c-409,139-873,161-1338,63
		c-389-82-815-285-1102-526c-119-99-275-262-357-372c-126-169-241-403-287-581c-28-111-61-316-61-379c0-52,3-73,35-251
		c52-283,182-523,399-740c139-138,261-225,446-318c224-113,468-186,720-217c52-6,122-15,156-21c79-12,227-12,312,1
		c37,5,123,17,192,25c906,114,1704,705,1938,1436c-9.7,437.7,2.5-884.7,62,2460c-1,2587,1,3178,12,3192c8,10,111,47,253,91
		c1428,445,3152,789,4745,947c289,28,693,59,702,54c4-3,8-1008,8-2235c0-2032-1-2229-16-2229c-9,0-66,16-127,35
		c-583,182-1285,122-1872-160c-628-302-1073-832-1175-1398c-25-137-27-355-5-483c126-734,824-1263,1733-1313
		c760-42,1509,241,2005,758c285,298,432,587,497,979c20,123,20,139,20,4881v4758l-77,7C12752,12795,12132,12799,12010,12790z"/>
</g>
</svg>
