<?xml version="1.0" encoding="utf-8"?>
<!-- Generator: Adobe Illustrator 19.0.0, SVG Export Plug-In . SVG Version: 6.00 Build 0)  -->
<svg version="1.1" xmlns="http://www.w3.org/2000/svg" xmlns:xlink="http://www.w3.org/1999/xlink" x="0px" y="0px" width="720px"
	 height="1280px" viewBox="-279 -240 720 1280" style="enable-background:new -279 -240 720 1280;" xml:space="preserve">
<style type="text/css">
	.st0{fill:url(#SVGID_1_);}
	.st1{fill:#E8F9A2;}
	.st2{fill:none;stroke:#FFF37F;stroke-width:3;stroke-miterlimit:10;}
	.st3{fill:#FFF96A;stroke:#FFC03F;stroke-width:23;stroke-miterlimit:10;}
	.st4{fill:#FFFFFF;stroke:#2A1000;stroke-width:4;stroke-miterlimit:10;}
	.st5{fill:#FFD294;stroke:#551100;stroke-width:4;stroke-miterlimit:10;}
	.st6{fill:#FFD294;stroke:#2A0900;stroke-width:4;stroke-miterlimit:10;}
	.st7{fill:#FFD294;stroke:#2A0B00;stroke-width:4;stroke-miterlimit:10;}
	.st8{fill:#FFD294;stroke:#150300;stroke-width:4;stroke-miterlimit:10;}
</style>
<g id="Camada_2">
	<g id="Camada_1_1_">
		<g>
			<g>
				
					<linearGradient id="SVGID_1_" gradientUnits="userSpaceOnUse" x1="72.6305" y1="-915.8549" x2="90.6324" y2="770.3138" gradientTransform="matrix(1 0 0 1 0 480)">
					<stop  offset="0" style="stop-color:#C8D26A"/>
					<stop  offset="0.5397" style="stop-color:#D4FFB0"/>
					<stop  offset="0.7116" style="stop-color:#CFEA90"/>
					<stop  offset="0.8939" style="stop-color:#CAD974"/>
					<stop  offset="1" style="stop-color:#C8D26A"/>
				</linearGradient>
				<rect x="-278.4" y="-240.2" class="st0" width="720" height="1280"/>
			</g>
		</g>
	</g>
</g>
<g id="Camada_1">
	<g>
		<path class="st1" d="M-100.7-162.2c0,42.8-35.2,49.3-78.6,49.3s-78.6-6.7-78.6-49.3c0-27.2,35.2-49.3,78.6-49.3
			S-100.7-189.4-100.7-162.2z"/>
		<path class="st1" d="M-214.7-163l-34.8-11.8c-2-0.7-3-2.8-2.3-4.8l11.8-34.8c0.7-2,2.8-3,4.8-2.3l34.8,11.8c2,0.7,3,2.8,2.3,4.8
			l-11.8,34.8C-210.6-163.3-212.7-162.3-214.7-163z"/>
		<path class="st1" d="M-147-162.3l-15.1-33.5c-0.8-1.9,0-4.1,1.9-5l33.5-15.1c1.9-0.8,4.1,0,5,1.9l15.1,33.5c0.8,1.9,0,4.1-1.9,5
			l-33.5,15.1C-144-159.6-146.2-160.4-147-162.3z"/>
	</g>
	<g>
		<path class="st1" d="M172.1-169.8c0,42.8-35.2,49.3-78.6,49.3s-78.6-6.7-78.6-49.3c0-27.2,35.2-49.3,78.6-49.3
			S172.1-197,172.1-169.8z"/>
		<path class="st1" d="M58.1-170.6l-34.8-11.8c-2-0.7-3-2.8-2.3-4.8L32.8-222c0.7-2,2.8-3,4.8-2.3l34.8,11.8c2,0.7,3,2.8,2.3,4.8
			l-11.8,34.8C62.2-171,60.1-170,58.1-170.6z"/>
		<path class="st1" d="M125.7-170l-15.1-33.5c-0.8-1.9,0-4.1,1.9-5l33.5-15.1c1.9-0.8,4.1,0,5,1.9l15.1,33.5c0.8,1.9,0,4.1-1.9,5
			l-33.5,15.1C128.8-167.2,126.6-168.1,125.7-170z"/>
	</g>
	<g>
		<path class="st1" d="M419.2-159.5c0,42.8-35.2,49.3-78.6,49.3s-78.6-6.7-78.6-49.3c0-27.2,35.2-49.3,78.6-49.3
			S419.2-186.7,419.2-159.5z"/>
		<path class="st1" d="M305.2-160.3l-34.8-11.8c-2-0.7-3-2.8-2.3-4.8l11.8-34.8c0.7-2,2.8-3,4.8-2.3l34.8,11.8c2,0.7,3,2.8,2.3,4.8
			L310-162.6C309.3-160.6,307.2-159.6,305.2-160.3z"/>
		<path class="st1" d="M372.8-159.6l-15.1-33.5c-0.8-1.9,0-4.1,1.9-5l33.5-15.1c1.9-0.8,4.1,0,5,1.9l15.1,33.5c0.8,1.9,0,4.1-1.9,5
			l-33.5,15.1C375.9-156.9,373.7-157.7,372.8-159.6z"/>
	</g>
	<g>
		<path class="st1" d="M22.7-36.4c0,42.8-35.2,49.3-78.6,49.3s-78.5-6.8-78.5-49.3c0-27.2,35.2-49.3,78.6-49.3S22.7-63.6,22.7-36.4z
			"/>
		<path class="st1" d="M-91.2-37.2L-126-49c-2-0.7-3-2.8-2.3-4.8l11.8-34.8c0.7-2,2.8-3,4.8-2.3l34.8,11.8c2,0.7,3,2.8,2.3,4.8
			l-11.8,34.8C-87.1-37.6-89.3-36.6-91.2-37.2z"/>
		<path class="st1" d="M-23.6-36.6l-15.1-33.5c-0.8-1.9,0-4.1,1.9-5l33.4-15c1.9-0.8,4.1,0,5,1.9l15.1,33.5c0.8,1.9,0,4.1-1.9,5
			l-33.5,15.1C-20.5-33.8-22.8-34.7-23.6-36.6z"/>
	</g>
	<g>
		<path class="st1" d="M316.9-34.3c0,42.8-35.2,49.3-78.6,49.3s-78.6-6.7-78.6-49.3c0-27.2,35.2-49.3,78.6-49.3
			S316.9-61.5,316.9-34.3z"/>
		<path class="st1" d="M202.9-35.1l-34.8-11.8c-2-0.7-3-2.8-2.3-4.8l11.8-34.8c0.7-2,2.8-3,4.8-2.3L217.2-77c2,0.7,3,2.8,2.3,4.8
			l-11.8,34.8C207-35.5,204.9-34.5,202.9-35.1z"/>
		<path class="st1" d="M270.6-34.5L255.5-68c-0.8-1.9,0-4.1,1.9-5l33.5-15.1c1.9-0.8,4.1,0,5,1.9L311-52.7c0.8,1.9,0,4.1-1.9,5
			l-33.5,15.1C273.6-31.7,271.4-32.6,270.6-34.5z"/>
	</g>
	<g>
		<path class="st1" d="M-82.1,473.2c0,42.8-35.2,49.3-78.6,49.3s-78.6-6.7-78.6-49.3c0-27.2,35.2-49.3,78.6-49.3
			S-82.1,446-82.1,473.2z"/>
		<path class="st1" d="M-196,472.4l-34.8-11.8c-2-0.7-3-2.8-2.3-4.8l11.8-34.8c0.7-2,2.8-3,4.8-2.3l34.8,11.8c2,0.7,3,2.8,2.3,4.8
			l-11.8,34.8C-191.9,472-194.1,473.1-196,472.4z"/>
		<path class="st1" d="M-128.4,473.1l-15.1-33.5c-0.8-1.9,0-4.1,1.9-5l33.5-15.1c1.9-0.8,4.1,0,5,1.9l15.1,33.5c0.8,1.9,0,4.1-1.9,5
			l-33.5,15.1C-125.3,475.8-127.5,475-128.4,473.1z"/>
	</g>
	<g>
		<path class="st1" d="M402.4,475.3c0,42.8-35.2,49.3-78.6,49.3s-78.6-6.7-78.6-49.3c0-27.2,35.2-49.3,78.6-49.3
			S402.4,448.1,402.4,475.3z"/>
		<path class="st1" d="M288.5,474.5l-34.8-11.8c-2-0.7-3-2.8-2.3-4.8l11.8-34.8c0.7-2,2.8-3,4.8-2.3l34.8,11.8c2,0.7,3,2.8,2.3,4.8
			l-11.8,34.8C292.6,474.1,290.4,475.2,288.5,474.5z"/>
		<path class="st1" d="M356.1,475.2L341,441.7c-0.8-1.9,0-4.1,1.9-5l33.5-15.1c1.9-0.8,4.1,0,5,1.9l15.1,33.5c0.8,1.9,0,4.1-1.9,5
			l-33.5,15.1C359.2,477.9,356.9,477.1,356.1,475.2z"/>
	</g>
	<g>
		<path class="st1" d="M167.9,634c0,42.8-35.2,49.3-78.6,49.3s-78.6-6.7-78.6-49.3c0-27.2,35.2-49.3,78.6-49.3
			S167.9,606.7,167.9,634z"/>
		<path class="st1" d="M54,633.2l-34.8-11.8c-2-0.7-3-2.8-2.3-4.8l11.7-34.8c0.7-2,2.8-3,4.8-2.3l34.8,11.8c2,0.7,3,2.8,2.3,4.8
			l-11.8,34.7C58.1,632.8,55.9,633.8,54,633.2z"/>
		<path class="st1" d="M121.6,633.8l-15.1-33.5c-0.8-1.9,0-4.1,1.9-5l33.5-15.1c1.9-0.8,4.1,0,5,1.9l15.1,33.5c0.8,1.9,0,4.1-1.9,5
			l-33.5,15.1C124.7,636.5,122.4,635.7,121.6,633.8z"/>
	</g>
	<g>
		<path class="st1" d="M-3.5,735.8c0,42.8-35.2,49.3-78.6,49.3s-78.6-6.7-78.6-49.3c0-27.2,35.2-49.3,78.6-49.3
			S-3.5,708.6-3.5,735.8z"/>
		<path class="st1" d="M-117.4,735l-34.8-11.8c-2-0.7-3-2.8-2.3-4.8l11.8-34.8c0.7-2,2.8-3,4.8-2.3l34.8,11.8c2,0.7,3,2.8,2.3,4.8
			l-11.8,34.8C-113.3,734.7-115.5,735.7-117.4,735z"/>
		<path class="st1" d="M-49.8,735.7l-15.1-33.5c-0.8-1.9,0-4.1,1.9-5l33.5-15.1c1.9-0.8,4.1,0,5,1.9l15.1,33.5c0.8,1.9,0,4.1-1.9,5
			l-33.5,15.1C-46.7,738.4-49,737.6-49.8,735.7z"/>
	</g>
	<g>
		<path class="st1" d="M329.7,740.6c0,42.8-35.2,49.3-78.6,49.3s-78.6-6.7-78.6-49.3c0-27.2,35.2-49.3,78.6-49.3
			S329.7,713.4,329.7,740.6z"/>
		<path class="st1" d="M215.8,739.8L181,728c-2-0.7-3-2.8-2.3-4.8l11.8-34.8c0.7-2,2.8-3,4.8-2.3l34.8,11.8c2,0.7,3,2.8,2.3,4.8
			l-11.8,34.8C219.9,739.4,217.7,740.5,215.8,739.8z"/>
		<path class="st1" d="M283.4,740.5L268.3,707c-0.8-1.9,0-4.1,1.9-5l33.5-15.1c1.9-0.8,4.1,0,5,1.9l15.1,33.5c0.8,1.9,0,4.1-1.9,5
			l-33.5,15.1C286.5,743.2,284.2,742.3,283.4,740.5z"/>
	</g>
	<g>
		<path class="st1" d="M-65.3,952.9c0,42.8-35.2,49.3-78.6,49.3s-78.6-6.7-78.6-49.3c0-27.2,35.2-49.3,78.6-49.3
			S-65.3,925.7-65.3,952.9z"/>
		<path class="st1" d="M-179.2,952.1l-34.8-11.8c-2-0.7-3-2.8-2.3-4.8l11.8-34.8c0.7-2,2.8-3,4.8-2.3l34.8,11.8c2,0.7,3,2.8,2.3,4.8
			l-11.8,34.8C-175.1,951.7-177.3,952.7-179.2,952.1z"/>
		<path class="st1" d="M-111.6,952.7l-15.1-33.5c-0.8-1.9,0-4.1,1.9-5l33.5-15.1c1.9-0.8,4.1,0,5,1.9l15.1,33.5c0.8,1.9,0,4.1-1.9,5
			l-33.5,15.1C-108.5,955.5-110.7,954.6-111.6,952.7z"/>
	</g>
	<g>
		<path class="st1" d="M388.4,957.6c0,42.8-35.2,49.3-78.6,49.3s-78.6-6.7-78.6-49.3c0-27.2,35.2-49.3,78.6-49.3
			S388.4,930.4,388.4,957.6z"/>
		<path class="st1" d="M274.5,956.8L239.7,945c-2-0.7-3-2.8-2.3-4.8l11.8-34.8c0.7-2,2.8-3,4.8-2.3l34.8,11.8c2,0.7,3,2.8,2.3,4.8
			l-11.8,34.8C278.5,956.4,276.4,957.5,274.5,956.8z"/>
		<path class="st1" d="M342.1,957.5L327,924c-0.8-1.9,0-4.1,1.9-5l33.5-15.1c1.9-0.8,4.1,0,5,1.9l15.1,33.5c0.8,1.9,0,4.1-1.9,5
			l-33.5,15.1C345.2,960.2,342.9,959.4,342.1,957.5z"/>
	</g>
	<g>
		<path class="st1" d="M167.9,856.9c0,42.8-35.2,49.3-78.6,49.3s-78.6-6.7-78.6-49.3c0-27.2,35.2-49.3,78.6-49.3
			S167.9,829.7,167.9,856.9z"/>
		<path class="st1" d="M54,856.1l-34.8-11.8c-2-0.7-3-2.8-2.3-4.8l11.7-34.7c0.7-2,2.8-3,4.8-2.3l34.8,11.8c2,0.7,3,2.8,2.3,4.8
			l-11.8,34.7C58.1,855.8,55.9,856.8,54,856.1z"/>
		<path class="st1" d="M121.6,856.8l-15.1-33.5c-0.8-1.9,0-4.1,1.9-5l33.5-15.1c1.9-0.8,4.1,0,5,1.9l15.1,33.5c0.8,1.9,0,4.1-1.9,5
			l-33.5,15.1C124.7,859.5,122.4,858.7,121.6,856.8z"/>
	</g>
	<g id="Camada_3">
		<line class="st2" x1="-278.4" y1="-54.7" x2="-96.2" y2="-236.9"/>
		<line class="st2" x1="-96.2" y1="-236.9" x2="-93.1" y2="-240"/>
		<line class="st2" x1="-278.4" y1="137.1" x2="95.6" y2="-236.9"/>
		<line class="st2" x1="-278.4" y1="271.6" x2="75.8" y2="-82.7"/>
		<line class="st2" x1="75.2" y1="-238.5" x2="441" y2="127.4"/>
		<line class="st2" x1="-278.4" y1="329.1" x2="278.1" y2="-227.4"/>
		<line class="st2" x1="265.5" y1="-240" x2="441" y2="-67.3"/>
		<line class="st2" x1="374" y1="-131.5" x2="-201.6" y2="444.1"/>
		<line class="st2" x1="75.8" y1="-82.7" x2="441" y2="282.4"/>
		<line class="st2" x1="-105.7" y1="-227.4" x2="441.1" y2="319.4"/>
		<line class="st2" x1="441.1" y1="474.4" x2="-20.1" y2="13.2"/>
		<line class="st2" x1="374" y1="444.1" x2="-201.6" y2="-131.5"/>
		<line class="st2" x1="171.7" y1="13.2" x2="-279" y2="463.9"/>
		<line class="st2" x1="441" y1="-6.7" x2="-105.7" y2="540"/>
		<line class="st2" x1="-278.4" y1="329.1" x2="-67.2" y2="540"/>
		<line class="st2" x1="-212" y1="205" x2="200.5" y2="617.5"/>
		<line class="st2" x1="-276.9" y1="176.9" x2="182.1" y2="636"/>
		<line class="st2" x1="-116.1" y1="109.1" x2="441" y2="666.2"/>
		<line class="st2" x1="-276.9" y1="-15" x2="278.1" y2="540"/>
		<line class="st2" x1="267.7" y1="109.1" x2="-276.9" y2="653.8"/>
		<line class="st2" x1="441.1" y1="185" x2="-9.7" y2="636"/>
		<line class="st2" x1="-279" y1="366.7" x2="86.2" y2="731.9"/>
		<line class="st2" x1="-67.2" y1="540" x2="104.6" y2="713.4"/>
		<line class="st2" x1="86.2" y1="731.9" x2="441.1" y2="376.9"/>
		<line class="st2" x1="57.4" y1="703.1" x2="441.1" y2="319.4"/>
		<line class="st2" x1="75.8" y1="396.9" x2="-91.4" y2="564.2"/>
		<line class="st2" x1="75.8" y1="396.9" x2="249.3" y2="568.7"/>
		<line class="st2" x1="-41.7" y1="610.3" x2="363.6" y2="205"/>
		<line class="st2" x1="-279" y1="751.8" x2="-91.4" y2="564.2"/>
		<line class="st2" x1="-279" y1="814" x2="-48.5" y2="1040"/>
		<line class="st2" x1="-279" y1="943.6" x2="-52" y2="716.6"/>
		<line class="st2" x1="-52" y1="716.6" x2="171.7" y2="492.8"/>
		<line class="st2" x1="-20.1" y1="492.8" x2="314.2" y2="830.1"/>
		<line class="st2" x1="441" y1="511.4" x2="-20.1" y2="972.5"/>
		<line class="st2" x1="-276.9" y1="713.4" x2="47.4" y2="1040"/>
		<line class="st2" x1="104.6" y1="1042.7" x2="441.1" y2="703.1"/>
		<line class="st2" x1="202.1" y1="1038.1" x2="441.1" y2="799"/>
		<line class="st2" x1="392" y1="1040" x2="441.1" y2="990.8"/>
		<line class="st2" x1="-116.1" y1="588.7" x2="335.2" y2="1040"/>
		<line class="st2" x1="-185.2" y1="1040" x2="263.7" y2="592.8"/>
		<line class="st2" x1="249.3" y1="568.7" x2="441.1" y2="762.2"/>
		<line class="st2" x1="263.7" y1="592.8" x2="267.7" y2="588.7"/>
		<line class="st2" x1="-278.4" y1="522.3" x2="171.7" y2="972.5"/>
		<line class="st2" x1="-212" y1="684.7" x2="143.3" y2="1040"/>
		<line class="st2" x1="-212" y1="780.6" x2="-41.7" y2="610.3"/>
		<line class="st2" x1="-116.1" y1="876.5" x2="57.4" y2="703.1"/>
		<line class="st2" x1="104.6" y1="713.4" x2="267.7" y2="876.5"/>
		<line class="st2" x1="171.7" y1="876.7" x2="363.6" y2="684.7"/>
		<line class="st2" x1="200.5" y1="617.5" x2="363.6" y2="780.6"/>
		<line class="st2" x1="317.1" y1="830.1" x2="441" y2="954"/>
	</g>
	<circle class="st3" cx="94.6" cy="301.9" r="214.5"/>
	<path class="st4" d="M218,281.5c0.3-18.6-3.2-30.4-17-40.2c-1.8-1.2-2.3-3.6-1.3-5.5c4.1-7.7,6.4-16.4,6.4-25.5
		c0-32.8-29.6-59.4-66.1-59.4c-12.7,0-24.6,3.3-34.7,8.9c-0.7,0.4-1.5,0.6-2.2,0.5c-1.8-0.1-3.6-0.1-5.4-0.1l0,0
		c-10.2-5.9-22.4-9.3-35.5-9.3c-36.5,0-66.1,26.6-66.1,59.3c0,7,1.4,13.7,3.8,20c0.8,2.1-0.2,4.5-2.2,5.4
		c-18.8,8.2-29.8,27.1-26.5,47.4c4,23.9,12.8,30.4,36.5,42.7c1.2,1.9,1.3,7.7,0.7,11.3c-1.3,9.9-2,20.1-2,30.7
		c0,79.5,39.9,85.2,89,85.2s89-5.6,89-85.2c0-9.5-0.6-18.9-1.7-27.9c-0.1-1,1.3-5,1.8-5.8l1.6-1.5c0.6-0.9,2.1-1.9,3-2.5
		C205.9,320.8,217.7,303.2,218,281.5z"/>
	
		<ellipse transform="matrix(-0.3896 -0.921 0.921 -0.3896 -237.8597 392.6148)" class="st5" cx="11.2" cy="275.1" rx="26.4" ry="25.2"/>
	
		<ellipse transform="matrix(0.4653 -0.8852 0.8852 0.4653 -145.1257 304.0468)" class="st6" cx="179.1" cy="272.1" rx="25.2" ry="21.7"/>
	<ellipse class="st6" cx="54.1" cy="201.5" rx="30.3" ry="27"/>
	<ellipse class="st7" cx="148.8" cy="201.5" rx="30.3" ry="29.5"/>
	<path class="st8" d="M148.8,306.7c0,20.6-7.8,37.8-50.3,37.3c-42.7-0.5-50.3-16.7-50.3-37.3c0-20.6,22.5-40,50.3-40
		S148.8,286,148.8,306.7z"/>
</g>
</svg>
